<svg width="17" height="16" viewBox="0 0 17 16" fill="none" xmlns="http://www.w3.org/2000/svg">
<g clip-path="url(#clip0_1861_728)">
<path d="M10.5 4.66667H12.5C12.9378 4.66667 13.3712 4.75289 13.7756 4.9204C14.1801 5.08792 14.5475 5.33345 14.857 5.64298C15.1666 5.95251 15.4121 6.31997 15.5796 6.72439C15.7471 7.12881 15.8334 7.56226 15.8334 8C15.8334 8.43774 15.7471 8.87119 15.5796 9.27561C15.4121 9.68003 15.1666 10.0475 14.857 10.357C14.5475 10.6666 14.1801 10.9121 13.7756 11.0796C13.3712 11.2471 12.9378 11.3333 12.5 11.3333H10.5M6.50002 11.3333H4.50002C4.06228 11.3333 3.62883 11.2471 3.22441 11.0796C2.81999 10.9121 2.45253 10.6666 2.143 10.357C1.51788 9.7319 1.16669 8.88405 1.16669 8C1.16669 7.11594 1.51788 6.2681 2.143 5.64298C2.76812 5.01786 3.61597 4.66667 4.50002 4.66667H6.50002" stroke="black" stroke-width="1.2" stroke-linecap="round" stroke-linejoin="round"/>
<path d="M5.83331 8H11.1666" stroke="black" stroke-width="1.2" stroke-linecap="round" stroke-linejoin="round"/>
</g>
<defs>
<clipPath id="clip0_1861_728">
<rect width="16" height="16" fill="white" transform="translate(0.5)"/>
</clipPath>
</defs>
</svg>
